<svg width="155" height="113" viewBox="0 0 155 113" fill="none" xmlns="http://www.w3.org/2000/svg">
    <g clip-path="url(#clip0_106_71)">
        <path fill-rule="evenodd" clip-rule="evenodd" d="M26.573 23.7146C11.0884 29.2976 -1.19959e-07 44.3092 -1.19959e-07 61.9531C-1.19959e-07 84.3612 17.8789 102.522 39.9371 102.522C55.1464 102.522 68.3664 93.8898 75.1095 81.1826L77.3888 83.8796L79.8048 81.0195C86.5224 93.8139 99.7898 102.522 115.065 102.522C137.123 102.522 155 84.3612 155 61.9531C155 44.2444 143.83 29.1883 128.257 23.6534L147.903 0.391357L77.2976 23.7238L6.87255 0.391357L26.573 23.7146ZM115.665 38.5632L92.3939 66.1154C94.3249 77.0518 103.741 85.3522 115.065 85.3522C127.785 85.3522 138.097 74.8771 138.097 61.9531C138.097 49.2347 128.11 38.8855 115.665 38.5632ZM62.5678 66.3302L39.122 38.5706C26.7773 39.0078 16.9051 49.3088 16.9051 61.9531C16.9051 74.8771 27.2149 85.3522 39.9371 85.3522C51.1859 85.3522 60.5493 77.1611 62.5678 66.3302Z" fill="#6B21A8"/>
        <path d="M62.5394 89.8748C62.5394 102.433 77.3884 112.612 77.3884 112.612C77.3884 112.612 92.2393 102.433 92.2393 89.8748C92.2393 77.317 85.5907 73.5139 77.3884 73.5139C69.188 73.5139 62.5394 77.317 62.5394 89.8748Z" fill="#FF9832"/>
    </g>
    <defs>
        <clipPath id="clip0_106_71">
            <rect width="155" height="113" fill="white" transform="matrix(-1 0 0 1 155 0)"/>
        </clipPath>
    </defs>
</svg>
